# xmcd
#
# Track frame offsets:
#	150
#	11060
#	20755
#	32886
#	42872
#	54154
#	66108
#	76555
#	88515
#	98997
#	110839
#	122876
#	131380
#	142365
#
# Disc length: 2038 seconds
#
# Revision: 1
# Processed by: cddbd v1.5.1PL2 Copyright (c) Steve Scherf et al.
# Submitted via: audiograbber 1.83.01
#
DISCID=bd07f40e
DTITLE=Sandy Posey - Sweet Dreams
DYEAR=2004
DGENRE=Country
TTITLE0=Single Girl
TTITLE1=Born a Woman
TTITLE2=Devoted to you
TTITLE3=I Love how you love me
TTITLE4=I will follow him
TTITLE5=Let it be me
TTITLE6=Young Love
TTITLE7=Sweet dreams (of you)
TTITLE8=Dream (All i have to do is...)
TTITLE9=Be my Baby
TTITLE10=Everybody's somebody's fool
TTITLE11=He's so fine
TTITLE12=I take it back
TTITLE13=One fine Day
EXTD=
EXTT0=
EXTT1=
EXTT2=
EXTT3=
EXTT4=
EXTT5=
EXTT6=
EXTT7=
EXTT8=
EXTT9=
EXTT10=
EXTT11=
EXTT12=
EXTT13=
PLAYORDER=
